<?xml version="1.0" encoding="UTF-8" standalone="no"?>
<!-- Created with Inkscape (http://www.inkscape.org/) -->

<svg
   xmlns:dc="http://purl.org/dc/elements/1.1/"
   xmlns:cc="http://creativecommons.org/ns#"
   xmlns:rdf="http://www.w3.org/1999/02/22-rdf-syntax-ns#"
   xmlns:svg="http://www.w3.org/2000/svg"
   xmlns="http://www.w3.org/2000/svg"
   xmlns:xlink="http://www.w3.org/1999/xlink"
   xmlns:sodipodi="http://sodipodi.sourceforge.net/DTD/sodipodi-0.dtd"
   xmlns:inkscape="http://www.inkscape.org/namespaces/inkscape"
   width="512"
   height="512"
   viewBox="0 0 135.46666 135.46667"
   version="1.1"
   id="svg8"
   inkscape:version="0.92.1 r15371"
   sodipodi:docname="openclipart_icon_3.svg">
  <defs
     id="defs2">
    <linearGradient
       inkscape:collect="always"
       id="linearGradient4380">
      <stop
         style="stop-color:#88c80b;stop-opacity:1"
         offset="0"
         id="stop4376" />
      <stop
         id="stop4384"
         offset="0.37569821"
         style="stop-color:#93d90c;stop-opacity:1" />
      <stop
         style="stop-color:#8ed10c;stop-opacity:1"
         offset="1"
         id="stop4378" />
    </linearGradient>
    <linearGradient
       inkscape:collect="always"
       xlink:href="#linearGradient4380"
       id="linearGradient4382"
       x1="87.879463"
       y1="298.51187"
       x2="87.879463"
       y2="163.19641"
       gradientUnits="userSpaceOnUse" />
  </defs>
  <sodipodi:namedview
     id="base"
     pagecolor="#ffffff"
     bordercolor="#666666"
     borderopacity="1.0"
     inkscape:pageopacity="0.0"
     inkscape:pageshadow="2"
     inkscape:zoom="0.98994949"
     inkscape:cx="241.94206"
     inkscape:cy="128.87796"
     inkscape:document-units="mm"
     inkscape:current-layer="text819"
     showgrid="false"
     inkscape:window-width="1920"
     inkscape:window-height="1018"
     inkscape:window-x="-8"
     inkscape:window-y="-8"
     inkscape:window-maximized="1"
     units="px" />
  <metadata
     id="metadata5">
    <rdf:RDF>
      <cc:Work
         rdf:about="">
        <dc:format>image/svg+xml</dc:format>
        <dc:type
           rdf:resource="http://purl.org/dc/dcmitype/StillImage" />
        <dc:title />
      </cc:Work>
    </rdf:RDF>
  </metadata>
  <g
     inkscape:label="Layer 1"
     inkscape:groupmode="layer"
     id="layer1"
     transform="translate(0,-161.53332)">
    <g
       id="g4367">
      <rect
         ry="7.8658066"
         y="161.62996"
         x="0.44583359"
         height="135.46666"
         width="135.46666"
         id="rect815"
         style="opacity:1;fill:url(#linearGradient4382);fill-opacity:1;stroke:none;stroke-width:0.43259728;stroke-miterlimit:4;stroke-dasharray:none;stroke-opacity:1"
         inkscape:export-xdpi="96"
         inkscape:export-ydpi="96" />
      <g
         id="text819"
         style="font-style:normal;font-variant:normal;font-weight:normal;font-stretch:normal;font-size:23.17582512px;line-height:1.25;font-family:'Century Gothic';-inkscape-font-specification:'Century Gothic, Normal';font-variant-ligatures:normal;font-variant-caps:normal;font-variant-numeric:normal;font-feature-settings:normal;text-align:start;letter-spacing:0px;word-spacing:0px;writing-mode:lr-tb;text-anchor:start;fill:#405c0a;fill-opacity:1;stroke:none;stroke-width:0.57941985"
         aria-label="Open"
         transform="matrix(1.0662439,0,0,1.0662439,15.385681,3.1305254)">
        <path
           id="path1840"
           style="font-style:normal;font-variant:normal;font-weight:normal;font-stretch:normal;font-size:23.17582512px;font-family:'Century Gothic';-inkscape-font-specification:'Century Gothic, Normal';font-variant-ligatures:normal;font-variant-caps:normal;font-variant-numeric:normal;font-feature-settings:normal;text-align:start;writing-mode:lr-tb;text-anchor:start;fill:#405c0a;fill-opacity:1;stroke-width:0.57941985"
           d="m 24.461069,229.07311 q 3.779651,0 6.325823,2.52354 2.546172,2.52354 2.546172,6.21266 0,3.65517 -2.546172,6.20134 -2.534856,2.54618 -6.190027,2.54618 -3.700437,0 -6.246609,-2.53486 -2.546173,-2.53486 -2.546173,-6.13345 0,-2.39906 1.154265,-4.44731 1.165581,-2.04825 3.16857,-3.20252 2.002989,-1.16558 4.334151,-1.16558 z m 0.07921,1.62955 q -1.84456,0 -3.496743,0.96189 -1.652183,0.96189 -2.580121,2.59144 -0.927938,1.62955 -0.927938,3.63253 0,2.96488 2.048254,5.01313 2.05957,2.03694 4.956548,2.03694 1.935091,0 3.575958,-0.93925 1.652182,-0.93926 2.568804,-2.56881 0.927939,-1.62955 0.927939,-3.62122 0,-1.98036 -0.927939,-3.57596 -0.916622,-1.60691 -2.591437,-2.5688 -1.674816,-0.96189 -3.553325,-0.96189 z"
           inkscape:connector-curvature="0" />
        <path
           id="path1842"
           style="font-style:normal;font-variant:normal;font-weight:normal;font-stretch:normal;font-size:23.17582512px;font-family:'Century Gothic';-inkscape-font-specification:'Century Gothic, Normal';font-variant-ligatures:normal;font-variant-caps:normal;font-variant-numeric:normal;font-feature-settings:normal;text-align:start;writing-mode:lr-tb;text-anchor:start;fill:#405c0a;fill-opacity:1;stroke-width:0.57941985"
           d="m 36.433736,233.82597 h 1.572969 v 2.26326 c 0.62617,-0.86004 1.346642,-1.50507 2.161417,-1.93509 0.814775,-0.43002 1.723853,-0.64503 2.727234,-0.64503 1.750257,0 3.247784,0.62994 4.492579,1.88982 1.244795,1.25989 1.867193,2.77628 1.867193,4.54917 0,1.81061 -0.618626,3.34962 -1.855877,4.61705 -1.229707,1.25989 -2.715917,1.88983 -4.45863,1.88983 -0.980748,0 -1.882282,-0.20369 -2.704601,-0.61108 -0.822319,-0.40739 -1.565424,-1.0147 -2.229315,-1.82193 v 16.92465 h -1.572969 z m 6.33714,1.21084 c -1.373047,0 -2.531083,0.47906 -3.47411,1.43717 -0.935483,0.95812 -1.403224,2.15011 -1.403224,3.57596 0,0.93549 0.207466,1.77667 0.622397,2.52354 0.422476,0.74688 1.022241,1.3391 1.799295,1.77666 0.784599,0.43757 1.61069,0.65635 2.478275,0.65635 0.852496,0 1.652183,-0.21878 2.39906,-0.65635 0.754421,-0.44511 1.354186,-1.06373 1.799295,-1.85587 0.445109,-0.79215 0.667663,-1.62201 0.667663,-2.48959 0,-0.87513 -0.222554,-1.705 -0.667663,-2.48959 -0.437565,-0.7846 -1.029786,-1.39191 -1.776663,-1.82193 -0.746877,-0.43757 -1.561652,-0.65635 -2.444325,-0.65635 z"
           inkscape:connector-curvature="0"
           sodipodi:nodetypes="cccsscscssccccscsccsccsccs" />
        <path
           id="path1844"
           style="font-style:normal;font-variant:normal;font-weight:normal;font-stretch:normal;font-size:23.17582512px;font-family:'Century Gothic';-inkscape-font-specification:'Century Gothic, Normal';font-variant-ligatures:normal;font-variant-caps:normal;font-variant-numeric:normal;font-feature-settings:normal;text-align:start;writing-mode:lr-tb;text-anchor:start;fill:#405c0a;fill-opacity:1;stroke-width:0.57941985"
           d="m 62.574438,242.05293 1.335326,0.70161 q -0.656347,1.29006 -1.516387,2.08221 -0.86004,0.79214 -1.935091,1.21084 -1.07505,0.40739 -2.433009,0.40739 -3.010141,0 -4.707589,-1.96904 -1.697448,-1.98036 -1.697448,-4.46995 0,-2.34248 1.437172,-4.17572 1.821928,-2.33116 4.877335,-2.33116 3.145937,0 5.024446,2.38774 1.335326,1.68613 1.357959,4.20967 H 53.24979 q 0.04527,2.1501 1.369275,3.5307 1.324009,1.36927 3.270416,1.36927 0.939255,0 1.821928,-0.32817 0.893989,-0.32818 1.516387,-0.87136 0.622398,-0.54318 1.346642,-1.75403 z m 0,-3.31568 q -0.316857,-1.26743 -0.927938,-2.02562 -0.599765,-0.7582 -1.595601,-1.22217 -0.995837,-0.46396 -2.09352,-0.46396 -1.810611,0 -3.111988,1.16558 -0.950571,0.84872 -1.437173,2.54617 z"
           inkscape:connector-curvature="0" />
        <path
           id="path1846"
           style="font-style:normal;font-variant:normal;font-weight:normal;font-stretch:normal;font-size:23.17582512px;font-family:'Century Gothic';-inkscape-font-specification:'Century Gothic, Normal';font-variant-ligatures:normal;font-variant-caps:normal;font-variant-numeric:normal;font-feature-settings:normal;text-align:start;writing-mode:lr-tb;text-anchor:start;fill:#405c0a;fill-opacity:1;stroke-width:0.57941985"
           d="m 67.282026,233.82597 h 1.584285 v 2.20668 q 0.950571,-1.26743 2.104835,-1.88983 1.154265,-0.63371 2.512224,-0.63371 1.380591,0 2.444325,0.70161 1.07505,0.70161 1.584285,1.88983 0.509234,1.18821 0.509234,3.70043 v 6.33714 h -1.572968 v -5.87317 q 0,-2.12747 -0.181061,-2.84039 -0.282908,-1.22217 -1.063735,-1.83325 -0.780826,-0.6224 -2.036937,-0.6224 -1.437173,0 -2.580121,0.95057 -1.131633,0.95058 -1.493755,2.3538 -0.226326,0.91662 -0.226326,3.34963 v 4.51521 h -1.584285 z"
           inkscape:connector-curvature="0" />
      </g>
      <g
         id="g1199"
         transform="matrix(0.80660439,0,0,0.80660439,56.130311,34.332895)"
         style="fill:#82ad2b;fill-opacity:1">
        <g
           id="g4374">
          <path
             transform="matrix(0.26458333,0,0,0.26458333,-83.154762,164.04167)"
             inkscape:connector-curvature="0"
             id="path1193"
             d="m 217.53125,78.080078 c -12.09956,0 -25.24405,4.024736 -32.50586,14.494141 -4.60653,6.64199 -7.04149,14.815651 -8.01953,22.777341 -2.17903,17.74209 6.63219,32.10202 20.50976,42.53125 20.42225,15.35052 46.03793,24.39311 68.33204,36.74805 9.29038,5.14904 18.8014,10.00804 28.29882,14.76367 3.25097,1.62202 7.39168,5.07197 11.04297,5.41016 3.14049,0.28989 6.46026,-2.79481 8.97266,-4.33399 6.6675,-4.08608 13.49498,-7.97217 20.01758,-12.29297 -15.46783,-14.48772 -44.21619,-16.95214 -54.85938,-36.58203 -3.38207,-6.2327 -1.57375,-14.66133 -1.11133,-21.39648 0.68331,-9.99995 0.0613,-19.81305 -4.30078,-28.99024 -10.22906,-21.519 -33.4064,-33.128902 -56.37695,-33.128902 z m 0.48242,19.564453 c 15.78419,-0.200091 32.16745,11.946729 37.6875,25.990239 3.27164,8.31023 4.47865,26.49642 -6.41992,29.91992 -15.27594,4.79013 -43.01182,-11.1732 -50.75195,-23.70899 -7.33497,-11.88007 -0.79252,-27.84801 12.79101,-31.328122 2.19706,-0.562961 4.43848,-0.844462 6.69336,-0.873047 z"
             style="fill:#000000;fill-opacity:0.36190479;stroke-width:0.69022036" />
          <path
             transform="matrix(0.26458333,0,0,0.26458333,-83.154762,164.04167)"
             inkscape:connector-curvature="0"
             id="path1195"
             d="m 544.74805,100.20117 c -17.66855,0.0473 -35.55581,3.96344 -51.12891,11.28321 -16.05453,7.54548 -31.12142,18.88738 -46.24414,28.15429 -64.05936,39.24662 -127.28433,80.56235 -192.57227,117.70313 -24.55736,13.97004 -52.34832,26.48466 -73.85351,44.96875 -9.74039,8.37237 -19.43457,20.57511 -13.18945,33.91015 2.57659,5.50107 6.35221,10.49206 10.16015,15.18555 25.92882,31.95719 72.17062,16.53078 99.66211,-5.28711 15.02608,-11.92698 27.72581,-27.05075 30.75586,-46.48047 2.09828,-13.45931 -5.45218,-28.87734 5.94336,-39.82422 6.54327,-6.281 16.2741,-8.30509 24.03906,-12.73633 18.69808,-10.66389 37.34816,-21.44318 55.90821,-32.34179 61.48433,-36.11204 122.58237,-74.44093 185.66796,-107.66797 v -1.38086 c -11.07306,-3.73999 -23.05943,-5.51871 -35.14843,-5.48633 z M 270.32617,274.13672 c 1.7329,1.7e-4 3.4753,0.31059 5.1836,0.59961 17.01392,2.87134 16.54409,17.54625 9.81445,30.42578 -9.99439,19.126 -32.5784,35.08284 -53.29883,40.39062 -15.05922,3.85834 -49.17178,5.30241 -41.69531,-19.68359 0.8469,-2.82988 2.10179,-5.24009 3.89844,-7.59375 10.75984,-14.06668 32.35341,-21.43764 47.46093,-29.96875 7.88924,-4.45882 16.81963,-11.26506 25.53711,-13.76367 1.0224,-0.29512 2.05987,-0.40636 3.09961,-0.40625 z"
             style="fill:#000000;fill-opacity:0.36190479;stroke-width:0.69022036" />
          <path
             id="path1197"
             d="m 11.289872,229.25964 c 0.68665,1.34409 2.77036,2.22797 4.01765,3.04246 3.34197,2.1805 6.7241,4.30072 10.04415,6.51409 5.55167,3.70172 11.16726,7.33222 16.80111,10.90611 2.61879,1.66185 5.30514,4.06697 8.21794,5.15721 2.59322,0.97155 5.34714,0.74692 8.03532,0.68118 4.17106,-0.10227 7.90017,0.0676 11.87035,-1.46462 v -0.36524 l -36.34154,-20.8206 -10.22677,-5.87857 -4.3829,-2.25901 -2.55669,1.23634 z"
             style="fill:#000000;fill-opacity:0.36190479;stroke-width:0.18262081"
             inkscape:connector-curvature="0" />
        </g>
      </g>
      <g
         style="fill:#ffffff"
         transform="matrix(0.80660439,0,0,0.80660439,54.3228,30.717872)"
         id="g1172">
        <path
           inkscape:connector-curvature="0"
           id="path823-3"
           transform="matrix(0.26458333,0,0,0.26458333,-83.154762,164.04167)"
           d="m 217.53125,78.080078 c -12.09956,0 -25.24405,4.024736 -32.50586,14.494141 -4.60653,6.64199 -7.04149,14.815651 -8.01953,22.777341 -2.17903,17.74209 6.63219,32.10202 20.50976,42.53125 20.42225,15.35052 46.03793,24.39311 68.33204,36.74805 9.29038,5.14904 18.8014,10.00804 28.29882,14.76367 3.25097,1.62202 7.39168,5.07197 11.04297,5.41016 3.14049,0.28989 6.46026,-2.79481 8.97266,-4.33399 6.6675,-4.08608 13.49498,-7.97217 20.01758,-12.29297 -15.46783,-14.48772 -44.21619,-16.95214 -54.85938,-36.58203 -3.38207,-6.2327 -1.57375,-14.66133 -1.11133,-21.39648 0.68331,-9.99995 0.0613,-19.81305 -4.30078,-28.99024 -10.22906,-21.519 -33.4064,-33.128902 -56.37695,-33.128902 z m 0.48242,19.564453 c 15.78419,-0.200091 32.16745,11.946729 37.6875,25.990239 3.27164,8.31023 4.47865,26.49642 -6.41992,29.91992 -15.27594,4.79013 -43.01182,-11.1732 -50.75195,-23.70899 -7.33497,-11.88007 -0.79252,-27.84801 12.79101,-31.328122 2.19706,-0.562961 4.43848,-0.844462 6.69336,-0.873047 z"
           style="fill:#ffffff;stroke-width:0.69022036" />
        <path
           inkscape:connector-curvature="0"
           id="path841-5"
           transform="matrix(0.26458333,0,0,0.26458333,-83.154762,164.04167)"
           d="m 544.74805,100.20117 c -17.66855,0.0473 -35.55581,3.96344 -51.12891,11.28321 -16.05453,7.54548 -31.12142,18.88738 -46.24414,28.15429 -64.05936,39.24662 -127.28433,80.56235 -192.57227,117.70313 -24.55736,13.97004 -52.34832,26.48466 -73.85351,44.96875 -9.74039,8.37237 -19.43457,20.57511 -13.18945,33.91015 2.57659,5.50107 6.35221,10.49206 10.16015,15.18555 25.92882,31.95719 72.17062,16.53078 99.66211,-5.28711 15.02608,-11.92698 27.72581,-27.05075 30.75586,-46.48047 2.09828,-13.45931 -5.45218,-28.87734 5.94336,-39.82422 6.54327,-6.281 16.2741,-8.30509 24.03906,-12.73633 18.69808,-10.66389 37.34816,-21.44318 55.90821,-32.34179 61.48433,-36.11204 122.58237,-74.44093 185.66796,-107.66797 v -1.38086 c -11.07306,-3.73999 -23.05943,-5.51871 -35.14843,-5.48633 z M 270.32617,274.13672 c 1.7329,1.7e-4 3.4753,0.31059 5.1836,0.59961 17.01392,2.87134 16.54409,17.54625 9.81445,30.42578 -9.99439,19.126 -32.5784,35.08284 -53.29883,40.39062 -15.05922,3.85834 -49.17178,5.30241 -41.69531,-19.68359 0.8469,-2.82988 2.10179,-5.24009 3.89844,-7.59375 10.75984,-14.06668 32.35341,-21.43764 47.46093,-29.96875 7.88924,-4.45882 16.81963,-11.26506 25.53711,-13.76367 1.0224,-0.29512 2.05987,-0.40636 3.09961,-0.40625 z"
           style="fill:#ffffff;stroke-width:0.69022036" />
        <path
           id="path909-4"
           d="m 11.289872,229.25964 c 0.68665,1.34409 2.77036,2.22797 4.01765,3.04246 3.34197,2.1805 6.7241,4.30072 10.04415,6.51409 5.55167,3.70172 11.16726,7.33222 16.80111,10.90611 2.61879,1.66185 5.30514,4.06697 8.21794,5.15721 2.59322,0.97155 5.34714,0.74692 8.03532,0.68118 4.17106,-0.10227 7.90017,0.0676 11.87035,-1.46462 v -0.36524 l -36.34154,-20.8206 -10.22677,-5.87857 -4.3829,-2.25901 -2.55669,1.23634 z"
           style="fill:#ffffff;stroke-width:0.18262081"
           inkscape:connector-curvature="0" />
      </g>
      <g
         id="text1180"
         style="font-style:normal;font-variant:normal;font-weight:normal;font-stretch:normal;font-size:23.17582512px;line-height:1.25;font-family:'Century Gothic';-inkscape-font-specification:'Century Gothic, Normal';font-variant-ligatures:normal;font-variant-caps:normal;font-variant-numeric:normal;font-feature-settings:normal;text-align:start;letter-spacing:0px;word-spacing:0px;writing-mode:lr-tb;text-anchor:start;fill:#405c0a;fill-opacity:1;stroke:none;stroke-width:0.57941985"
         aria-label="Clipart"
         transform="matrix(0.86742319,0,0,0.86742319,9.8742417,48.004195)">
        <path
           id="path1849"
           style="font-style:normal;font-variant:normal;font-weight:normal;font-stretch:normal;font-size:23.17582512px;font-family:'Century Gothic';-inkscape-font-specification:'Century Gothic, Normal';font-variant-ligatures:normal;font-variant-caps:normal;font-variant-numeric:normal;font-feature-settings:normal;text-align:start;writing-mode:lr-tb;text-anchor:start;fill:#405c0a;fill-opacity:1;stroke-width:0.57941985"
           d="m 48.109999,255.48055 -1.312693,1.00716 q -1.086367,-1.41454 -2.61407,-2.13879 -1.516387,-0.73556 -3.338315,-0.73556 -1.991672,0 -3.68912,0.96189 -1.697448,0.95057 -2.636703,2.5688 -0.927938,1.60692 -0.927938,3.62123 0,3.04409 2.082203,5.08102 2.093519,2.03694 5.273405,2.03694 3.496744,0 5.850538,-2.73855 l 1.312693,0.99584 q -1.244795,1.58428 -3.111988,2.45564 -1.855876,0.86004 -4.15309,0.86004 -4.368099,0 -6.891639,-2.90829 -2.116152,-2.45565 -2.116152,-5.92976 0,-3.65517 2.557489,-6.14476 2.568804,-2.50091 6.42767,-2.50091 2.331162,0 4.209671,0.92794 1.878509,0.91662 3.078039,2.58012 z"
           inkscape:connector-curvature="0" />
        <path
           id="path1853"
           style="font-style:normal;font-variant:normal;font-weight:normal;font-stretch:normal;font-size:23.17582512px;font-family:'Century Gothic';-inkscape-font-specification:'Century Gothic, Normal';font-variant-ligatures:normal;font-variant-caps:normal;font-variant-numeric:normal;font-feature-settings:normal;text-align:start;writing-mode:lr-tb;text-anchor:start;fill:#405c0a;fill-opacity:1;stroke-width:0.57941985"
           d="m 56.393548,251.65564 q 0.543183,0 0.927938,0.38475 0.384755,0.38476 0.384755,0.92794 0,0.53187 -0.384755,0.91662 -0.384755,0.38476 -0.927938,0.38476 -0.531867,0 -0.916622,-0.38476 -0.384755,-0.38475 -0.384755,-0.91662 0,-0.54318 0.384755,-0.92794 0.384755,-0.38475 0.916622,-0.38475 z m -0.792143,5.06971 h 1.595601 v 12.31216 h -1.595601 z"
           inkscape:connector-curvature="0" />
        <path
           id="path1855"
           style="font-style:normal;font-variant:normal;font-weight:normal;font-stretch:normal;font-size:23.17582512px;font-family:'Century Gothic';-inkscape-font-specification:'Century Gothic, Normal';font-variant-ligatures:normal;font-variant-caps:normal;font-variant-numeric:normal;font-feature-settings:normal;text-align:start;writing-mode:lr-tb;text-anchor:start;fill:#405c0a;fill-opacity:1;stroke-width:0.57941985"
           d="m 60.524004,256.72535 h 1.572968 v 2.26326 q 0.939255,-1.29006 2.161417,-1.93509 1.222163,-0.64503 2.727234,-0.64503 2.625386,0 4.492579,1.88983 1.867193,1.88982 1.867193,4.54916 0,2.71592 -1.855877,4.61706 -1.84456,1.88982 -4.45863,1.88982 -1.471122,0 -2.704601,-0.61108 -1.233479,-0.61108 -2.229315,-1.82193 v 6.62005 h -1.572968 z m 6.337139,1.21085 q -2.05957,0 -3.47411,1.43717 -1.403224,1.43717 -1.403224,3.57596 0,1.40322 0.622398,2.52354 0.633714,1.12031 1.799295,1.77666 1.176897,0.65634 2.478274,0.65634 1.278744,0 2.39906,-0.65634 1.131632,-0.66767 1.799295,-1.85588 0.667663,-1.18821 0.667663,-2.48959 0,-1.31269 -0.667663,-2.48959 -0.656347,-1.1769 -1.776662,-1.82193 -1.120316,-0.65634 -2.444326,-0.65634 z"
           inkscape:connector-curvature="0" />
        <path
           id="path1857"
           style="font-style:normal;font-variant:normal;font-weight:normal;font-stretch:normal;font-size:23.17582512px;font-family:'Century Gothic';-inkscape-font-specification:'Century Gothic, Normal';font-variant-ligatures:normal;font-variant-caps:normal;font-variant-numeric:normal;font-feature-settings:normal;text-align:start;writing-mode:lr-tb;text-anchor:start;fill:#405c0a;fill-opacity:1;stroke-width:0.57941985"
           d="m 88.565847,256.72535 v 12.31216 h -1.561652 v -2.11616 q -0.995836,1.21085 -2.240632,1.82193 -1.233479,0.61108 -2.7046,0.61108 -2.61407,0 -4.469947,-1.88982 -1.84456,-1.90114 -1.84456,-4.61706 0,-2.65934 1.867193,-4.54916 1.867193,-1.88983 4.492579,-1.88983 1.516387,0 2.73855,0.64503 1.233479,0.64503 2.161417,1.93509 v -2.26326 z m -6.337139,1.21085 q -1.32401,0 -2.444326,0.65634 -1.120315,0.64503 -1.787978,1.82193 -0.656347,1.1769 -0.656347,2.48959 0,1.30138 0.667663,2.48959 0.667663,1.18821 1.787979,1.85588 1.131632,0.65634 2.421692,0.65634 1.301377,0 2.466958,-0.65634 1.165581,-0.65635 1.787979,-1.77666 0.633714,-1.12032 0.633714,-2.52354 0,-2.13879 -1.41454,-3.57596 -1.403224,-1.43717 -3.462794,-1.43717 z"
           inkscape:connector-curvature="0" />
        <path
           id="path1859"
           style="font-style:normal;font-variant:normal;font-weight:normal;font-stretch:normal;font-size:23.17582512px;font-family:'Century Gothic';-inkscape-font-specification:'Century Gothic, Normal';font-variant-ligatures:normal;font-variant-caps:normal;font-variant-numeric:normal;font-feature-settings:normal;text-align:start;writing-mode:lr-tb;text-anchor:start;fill:#405c0a;fill-opacity:1;stroke-width:0.57941985"
           d="m 91.54204,256.72535 h 1.618234 v 1.79929 q 0.724245,-1.06373 1.527703,-1.58428 0.803459,-0.53187 1.674816,-0.53187 0.656346,0 1.403224,0.41871 l -0.826092,1.33532 q -0.497918,-0.21501 -0.837408,-0.21501 -0.792142,0 -1.527703,0.65635 -0.735561,0.64503 -1.120316,2.0143 -0.294224,1.05242 -0.294224,4.25494 v 4.16441 H 91.54204 Z"
           inkscape:connector-curvature="0" />
        <path
           id="path1861"
           style="font-style:normal;font-variant:normal;font-weight:normal;font-stretch:normal;font-size:23.17582512px;font-family:'Century Gothic';-inkscape-font-specification:'Century Gothic, Normal';font-variant-ligatures:normal;font-variant-caps:normal;font-variant-numeric:normal;font-feature-settings:normal;text-align:start;writing-mode:lr-tb;text-anchor:start;fill:#405c0a;fill-opacity:1;stroke-width:0.57941985"
           d="m 100.49325,252.15356 h 1.5956 v 4.57179 h 2.51223 v 1.35796 h -2.51223 v 10.9542 h -1.5956 v -10.9542 h -2.161415 v -1.35796 h 2.161415 z"
           inkscape:connector-curvature="0" />
      </g>
    </g>
  </g>
</svg>
